<?xml version="1.0" encoding="utf-8"?>
<!-- Generator: Adobe Illustrator 24.0.2, SVG Export Plug-In . SVG Version: 6.00 Build 0)  -->
<svg version="1.1" id="Layer_1" xmlns="http://www.w3.org/2000/svg" xmlns:xlink="http://www.w3.org/1999/xlink" x="0px" y="0px"
	 viewBox="0 0 2755.8 1697.1" style="enable-background:new 0 0 2755.8 1697.1;" xml:space="preserve">
<style type="text/css">
	.st0{fill:#1A1A1A;}
</style>
<g transform="translate(0 1447.6)">
	<path class="st0" d="M340.2-1421c-42.1,0-76,33.2-76,74.3V13.2c0,39.2-5.5,71.1,30.1,74.1H44.6c-29.6,0-14.4,23-14.4,51.6v34.4
		C30.2,202,54,225,83.5,225h2587.1c29.6,0,53.3-23,53.3-51.6v-34.4c0-28.6,15.1-51.6-14.4-51.6h-249.7c35.7-3,30.1-34.9,30.1-74.1
		v-1359.9c0-41.2-33.9-74.3-76-74.3L340.2-1421L340.2-1421z M996.6-1403c10.8,0,19.6,8.6,19.6,19.1c0,10.6-8.8,19.1-19.6,19.1
		s-19.6-8.6-19.6-19.1C977.1-1394.4,985.8-1403,996.6-1403z M338.3-1346.5h2077.5V13.1H338.3L338.3-1346.5L338.3-1346.5z
		 M1039.4,87.6h675.5c-1,14.4-11,25.6-23.3,25.6h-628.8C1050.4,113.2,1040.4,102,1039.4,87.6L1039.4,87.6z M2410.9,128.3
		c15.9,0,28.8,12.5,28.8,27.9s-12.9,27.9-28.8,27.9c-15.9,0-28.8-12.5-28.8-27.9S2394.9,128.3,2410.9,128.3z M2501.7,128.3
		c15.9,0,28.8,12.5,28.8,27.9c0,15.4-12.9,27.9-28.8,27.9c-15.9,0-28.8-12.5-28.8-27.9S2485.8,128.3,2501.7,128.3z M2592.6,128.3
		c15.9,0,28.8,12.5,28.8,27.9s-12.9,27.9-28.8,27.9c-15.9,0-28.8-12.5-28.8-27.9S2576.6,128.3,2592.6,128.3z M145.2,146.7h151.1
		c7.4,0,13.3,4.2,13.3,9.4c0,5.2-5.9,9.4-13.3,9.4H145.2c-7.4,0-13.3-4.2-13.3-9.4C131.8,150.9,137.8,146.7,145.2,146.7z"/>
</g>
</svg>
